<svg width="101" height="48" viewBox="0 0 101 48" fill="none" xmlns="http://www.w3.org/2000/svg">
<path d="M16.2829 0.0406829C16.271 0.0273951 16.2564 0.0168714 16.24 0.00985313C16.2236 0.00283487 16.2059 -0.000507227 16.1881 6.22784e-05L10.9885 0.223476H6.09351L0.135611 6.22784e-05C0.0998952 0.00057099 0.0658268 0.0151712 0.0408266 0.0406829C0.0271507 0.0522341 0.0163579 0.066816 0.00930609 0.0832697C0.00225427 0.0997233 -0.000862158 0.117595 0.000204514 0.135464V3.44604C0.000161026 3.48081 0.013494 3.51426 0.0374414 3.53947C0.0613887 3.56468 0.0941152 3.57971 0.128841 3.58144H0.968364C1.00102 3.58181 1.03271 3.57037 1.05759 3.54922C1.08247 3.52807 1.09887 3.49864 1.10377 3.46635C1.15069 3.2159 1.23514 2.97397 1.35427 2.74872C1.46857 2.5096 1.60695 2.28276 1.76726 2.07171C1.94215 1.85137 2.1774 1.6867 2.4443 1.59781C2.82577 1.47968 3.223 1.42032 3.62234 1.42178H7.00751V14.7183C7.0117 14.9801 6.98443 15.2415 6.92627 15.4968C6.87948 15.6908 6.8066 15.8776 6.70962 16.052C6.61655 16.1999 6.48246 16.3175 6.32371 16.3905C6.11079 16.4874 5.88052 16.5403 5.64667 16.5462C5.6125 16.5494 5.58065 16.5649 5.557 16.5898C5.53336 16.6147 5.51952 16.6473 5.51804 16.6816V17.5211C5.51801 17.5386 5.52155 17.5559 5.52843 17.5719C5.53532 17.588 5.5454 17.6025 5.55807 17.6145C5.57074 17.6266 5.58574 17.6359 5.60213 17.6419C5.61853 17.648 5.63599 17.6506 5.65344 17.6497H10.6906C10.7077 17.6507 10.7249 17.648 10.7409 17.6419C10.757 17.6358 10.7716 17.6264 10.7837 17.6142C10.7959 17.6021 10.8053 17.5875 10.8114 17.5714C10.8175 17.5554 10.8202 17.5382 10.8192 17.5211V16.7087C10.8196 16.676 10.8081 16.6443 10.787 16.6194C10.7658 16.5946 10.7364 16.5782 10.7041 16.5733C10.4691 16.5548 10.2395 16.4928 10.0271 16.3905C9.86901 16.3191 9.73666 16.201 9.64795 16.052C9.54976 15.8716 9.47903 15.6777 9.43807 15.4765C9.38583 15.2203 9.36086 14.9594 9.36359 14.6979V1.42178H12.6946C13.0345 1.41475 13.3738 1.45346 13.7034 1.53687C13.9555 1.60177 14.1879 1.72727 14.3804 1.90246C14.5567 2.04648 14.7137 2.21259 14.8476 2.39668C14.9688 2.55604 15.0626 2.73451 15.1252 2.92474C15.1282 2.96531 15.1282 3.00604 15.1252 3.04661C15.1325 3.09707 15.1438 3.14688 15.159 3.19555V3.23617C15.1482 3.26915 15.1482 3.30474 15.159 3.33772V3.41896C15.159 3.45373 15.1723 3.48718 15.1962 3.51239C15.2202 3.5376 15.2529 3.55263 15.2876 3.55436H16.1272C16.1446 3.55439 16.1619 3.55085 16.178 3.54397C16.1941 3.53708 16.2086 3.527 16.2206 3.51433C16.2326 3.50166 16.242 3.48667 16.248 3.47027C16.2541 3.45387 16.2567 3.43642 16.2558 3.41896V0.135464C16.2671 0.122657 16.2753 0.107511 16.28 0.0911195C16.2847 0.074728 16.2857 0.0575008 16.2829 0.0406829Z" fill="#825171"/>
<path d="M27.8671 16.5326L27.6301 16.1535C27.6188 16.147 27.6059 16.1435 27.5929 16.1435C27.5798 16.1435 27.5669 16.147 27.5556 16.1535C27.5443 16.1566 27.534 16.1626 27.5257 16.1709C27.5173 16.1792 27.5113 16.1896 27.5082 16.2009L27.427 16.2415L27.3728 16.2754C27.3254 16.2754 27.2848 16.2754 27.2171 16.3227H27.0817C27.0568 16.3285 27.0336 16.3401 27.014 16.3566H26.838C26.686 16.3644 26.5351 16.3267 26.4047 16.2483C26.2474 16.1676 26.1089 16.0545 25.9984 15.9165C25.8509 15.7477 25.7526 15.5416 25.7141 15.3208C25.6382 14.9626 25.6042 14.5968 25.6125 14.2308V9.47818C25.6017 9.38823 25.6017 9.29732 25.6125 9.20737V8.91626C25.6125 8.71315 25.6125 8.50328 25.6125 8.30018C25.597 8.09084 25.5676 7.88277 25.5245 7.67733C25.4249 7.22925 25.2655 6.79659 25.0506 6.39101C24.832 5.97591 24.5662 5.58744 24.2585 5.23332C23.9097 4.8322 23.4505 4.54259 22.9382 4.4006C22.2681 4.20356 21.5717 4.10996 20.8733 4.12303C20.3014 4.12076 19.7312 4.18437 19.1739 4.31259C18.6949 4.42792 18.2376 4.61996 17.8199 4.88128C17.4556 5.08996 17.1303 5.36026 16.8585 5.68015C16.6464 5.94645 16.5086 6.26411 16.459 6.60088V6.77014C16.4562 6.91823 16.4721 7.0661 16.5064 7.21019C16.5382 7.33702 16.6122 7.44924 16.7163 7.52839C16.7879 7.60411 16.8728 7.66607 16.9668 7.71118C17.0633 7.76023 17.1657 7.79664 17.2715 7.8195H17.3256C17.3363 7.82437 17.3478 7.82689 17.3595 7.82689C17.3712 7.82689 17.3827 7.82437 17.3933 7.8195H17.6032C17.7271 7.8309 17.8517 7.8309 17.9756 7.8195C18.0887 7.79234 18.1949 7.74159 18.287 7.67056C18.3653 7.61983 18.438 7.56082 18.5037 7.49454C18.5718 7.42628 18.6331 7.35144 18.6865 7.27112C18.7086 7.22304 18.7267 7.17323 18.7406 7.12218C18.7535 7.08047 18.7693 7.03975 18.788 7.00032C18.7805 6.96689 18.7805 6.9322 18.788 6.89877C18.7953 6.87848 18.8068 6.86 18.8219 6.84461C18.827 6.82923 18.827 6.81259 18.8219 6.79722C18.8185 6.75666 18.8185 6.71591 18.8219 6.67535C18.8617 6.62321 18.9071 6.57554 18.9573 6.53318C18.9426 6.48462 18.9426 6.4328 18.9573 6.38424C18.9934 6.32207 19.0229 6.25627 19.0453 6.18791C19.0919 6.07541 19.1585 5.97221 19.2416 5.88325C19.331 5.77862 19.4309 5.68335 19.5395 5.59891C19.6552 5.48949 19.7976 5.41244 19.9525 5.3755C20.1482 5.33271 20.3481 5.31227 20.5483 5.31457C21.0196 5.29361 21.4876 5.40127 21.9024 5.62599C22.2343 5.84152 22.4753 6.17167 22.5794 6.55349C22.6963 6.9991 22.7867 7.45123 22.8502 7.90751C22.9358 8.38659 22.9923 8.87041 23.0195 9.35631H22.9789C22.0552 9.4179 21.1368 9.54231 20.2301 9.72867C19.3747 9.90523 18.5364 10.1567 17.7251 10.4802C16.9873 10.7221 16.3481 11.1973 15.9039 11.8342C15.4727 12.5519 15.2631 13.3809 15.3013 14.2172C15.3034 14.6818 15.3954 15.1416 15.5721 15.5713C15.7392 16.0053 15.9671 16.4133 16.2491 16.7831C16.5912 17.1619 17.0283 17.4424 17.5152 17.5955C18.1106 17.7829 18.7326 17.8721 19.3567 17.8596C19.5841 17.854 19.8106 17.829 20.0338 17.7851C20.3046 17.7377 20.5822 17.6835 20.8598 17.6158C21.2134 17.5874 21.555 17.4735 21.855 17.2841C22.2162 17.071 22.5563 16.8239 22.8705 16.5462L22.9992 16.4311C23.0533 16.3963 23.1033 16.3554 23.1481 16.3092L23.2835 16.1738L23.3851 16.0452C23.4504 16.2821 23.546 16.5096 23.6694 16.7222C23.8012 16.9444 23.9605 17.1491 24.1434 17.3315C24.342 17.5026 24.5719 17.6337 24.8204 17.7174C25.0897 17.8138 25.3739 17.8619 25.6599 17.8596C25.9018 17.8582 26.1426 17.8287 26.3776 17.7715C26.5737 17.7195 26.766 17.6539 26.9531 17.5752C27.1377 17.4628 27.3081 17.3287 27.4608 17.1758C27.6203 17.0102 27.7653 16.8313 27.8941 16.6409C27.9001 16.6322 27.9042 16.6224 27.9061 16.612C27.9079 16.6016 27.9076 16.5909 27.905 16.5807C27.9025 16.5704 27.8978 16.5608 27.8912 16.5526C27.8847 16.5443 27.8764 16.5375 27.8671 16.5326ZM23.0195 10.5885V11.7394C23.0224 12.3283 22.9817 12.9167 22.8976 13.4996C22.8313 14.0015 22.7249 14.4973 22.5794 14.9823C22.4541 15.4033 22.1797 15.7643 21.8076 15.9978C21.3781 16.237 20.8905 16.3518 20.3994 16.3295C20.0771 16.3357 19.7563 16.2853 19.4515 16.1806C19.1781 16.0782 18.9257 15.9268 18.7068 15.7337C18.4986 15.5477 18.3364 15.316 18.2329 15.0567C18.1318 14.7674 18.0815 14.4628 18.0839 14.1563V13.8584C18.1345 13.4728 18.2586 13.1005 18.4495 12.7617C18.6753 12.3778 18.9558 12.0288 19.2823 11.7258C19.7336 11.3824 20.2459 11.1274 20.792 10.9744C21.5192 10.769 22.2657 10.6397 23.0195 10.5885Z" fill="#825171"/>
<path d="M41.5973 6.93274C41.62 6.69921 41.6794 6.47073 41.7734 6.25573C41.8721 6.0719 42.0228 5.92121 42.2067 5.82245C42.4683 5.68018 42.7426 5.56234 43.0259 5.4704C43.0381 5.46674 43.049 5.45972 43.0574 5.45014C43.0657 5.44056 43.0713 5.42881 43.0733 5.41624V4.42781C43.0733 4.40985 43.0661 4.39263 43.0534 4.37994C43.0407 4.36724 43.0235 4.36011 43.0056 4.36011H37.4674C37.4495 4.36011 37.4322 4.36724 37.4195 4.37994C37.4068 4.39263 37.3997 4.40985 37.3997 4.42781V5.45009C37.3994 5.46593 37.4046 5.48138 37.4145 5.49375C37.4244 5.50612 37.4384 5.51463 37.4539 5.51779C37.7324 5.56202 38.0008 5.65604 38.246 5.79537C38.429 5.90313 38.5753 6.06356 38.6658 6.25573C38.7595 6.4863 38.8254 6.72721 38.8621 6.97337C38.9069 7.27824 38.9295 7.58596 38.9298 7.8941V10.3787H32.9787V7.92795C32.9763 7.61812 32.9922 7.30842 33.0261 7.00045C33.0521 6.75587 33.1137 6.5164 33.2089 6.28959C33.2809 6.08711 33.4224 5.91677 33.6083 5.80891C33.8723 5.65682 34.1576 5.54501 34.4546 5.47717C34.4637 5.47924 34.4731 5.47921 34.4821 5.47709C34.4911 5.47497 34.4996 5.47081 34.5068 5.46493C34.5139 5.45905 34.5197 5.45161 34.5236 5.44317C34.5274 5.43473 34.5293 5.42552 34.5291 5.41624V4.42781C34.5276 4.41037 34.5199 4.39402 34.5076 4.38164C34.4952 4.36926 34.4788 4.36163 34.4614 4.36011H28.93C28.9126 4.36163 28.8962 4.36926 28.8838 4.38164C28.8715 4.39402 28.8638 4.41037 28.8623 4.42781V5.45009C28.8622 5.46515 28.8677 5.4797 28.8777 5.49095C28.8877 5.5022 28.9015 5.50935 28.9165 5.51102C29.1836 5.58544 29.4388 5.69712 29.6747 5.84276C29.8534 5.95286 29.9986 6.10972 30.0945 6.29636C30.1959 6.51053 30.2643 6.73877 30.2976 6.97337C30.3408 7.28514 30.3612 7.59966 30.3586 7.91441V14.1361C30.3609 14.4396 30.3405 14.7429 30.2976 15.0433C30.2551 15.2955 30.187 15.5428 30.0945 15.7813C30.0137 15.9862 29.8688 16.1595 29.6815 16.2755C29.4507 16.4028 29.1934 16.4746 28.93 16.4854C28.9211 16.4854 28.9123 16.4871 28.9041 16.4905C28.8959 16.4939 28.8884 16.4989 28.8821 16.5052C28.8758 16.5115 28.8709 16.5189 28.8675 16.5271C28.8641 16.5354 28.8623 16.5442 28.8623 16.5531V17.5415C28.864 17.5582 28.8719 17.5738 28.8844 17.585C28.8969 17.5963 28.9132 17.6025 28.93 17.6024H34.4411C34.4579 17.6025 34.4742 17.5963 34.4867 17.585C34.4992 17.5738 34.5071 17.5582 34.5088 17.5415V16.5666C34.5075 16.5502 34.5009 16.5346 34.4899 16.5223C34.4788 16.5101 34.4641 16.5018 34.4478 16.4989C34.1543 16.4713 33.869 16.3862 33.6083 16.2484C33.5124 16.1965 33.4277 16.1261 33.3592 16.0412C33.2906 15.9564 33.2395 15.8589 33.2089 15.7542C33.1202 15.5066 33.0589 15.2501 33.0261 14.9892C32.9915 14.6858 32.9757 14.3805 32.9787 14.0752V11.5703H38.9298V14.1158C38.9304 14.4375 38.9078 14.7588 38.8621 15.0772C38.8204 15.334 38.7523 15.5858 38.659 15.8287C38.5828 16.0354 38.4301 16.2051 38.2325 16.3026C37.9946 16.4185 37.7319 16.4743 37.4674 16.465C37.4583 16.464 37.449 16.465 37.4403 16.468C37.4316 16.471 37.4236 16.4759 37.4171 16.4825C37.4106 16.489 37.4057 16.4969 37.4026 16.5056C37.3996 16.5143 37.3986 16.5236 37.3997 16.5327V17.5212C37.3997 17.5298 37.4014 17.5383 37.4049 17.5462C37.4084 17.554 37.4135 17.5611 37.4199 17.5668C37.4263 17.5726 37.4338 17.5769 37.442 17.5796C37.4502 17.5822 37.4589 17.5831 37.4674 17.5821H43.0056C43.0141 17.5831 43.0228 17.5822 43.031 17.5796C43.0392 17.5769 43.0467 17.5726 43.0531 17.5668C43.0595 17.5611 43.0646 17.554 43.0681 17.5462C43.0715 17.5383 43.0733 17.5298 43.0733 17.5212V16.5666C43.0736 16.5508 43.0683 16.5353 43.0584 16.5229C43.0485 16.5106 43.0346 16.5021 43.0191 16.4989C42.7523 16.4664 42.4945 16.3813 42.2608 16.2484C42.0724 16.1337 41.9163 15.9729 41.8072 15.7813C41.7126 15.5534 41.6466 15.3146 41.6109 15.0704C41.5643 14.7407 41.5417 14.4081 41.5432 14.0752V7.92795C41.5415 7.59543 41.5595 7.26311 41.5973 6.93274Z" fill="#825171"/>
<path d="M55.1789 4.36011H44.7729C44.7561 4.36179 44.7406 4.36966 44.7293 4.38218C44.718 4.3947 44.7118 4.41097 44.7119 4.42781V5.45009C44.7116 5.46416 44.7161 5.47791 44.7247 5.48902C44.7334 5.50013 44.7456 5.5079 44.7593 5.51102C45.0385 5.58131 45.3072 5.68831 45.5582 5.82922C45.735 5.93049 45.8785 6.08105 45.9712 6.2625C46.0724 6.47675 46.1409 6.70496 46.1743 6.93951C46.2173 7.25586 46.2376 7.57486 46.2353 7.8941V14.1158C46.2376 14.4373 46.2173 14.7586 46.1743 15.0772C46.1365 15.3217 46.0683 15.5605 45.9712 15.788C45.8802 15.9859 45.7284 16.1496 45.5379 16.2552C45.3018 16.3816 45.0404 16.4533 44.7729 16.465C44.7561 16.4667 44.7406 16.4746 44.7293 16.4871C44.718 16.4996 44.7118 16.5159 44.7119 16.5327V17.5212C44.7119 17.5373 44.7184 17.5528 44.7298 17.5643C44.7412 17.5757 44.7567 17.5821 44.7729 17.5821H50.4532C50.4617 17.5831 50.4704 17.5822 50.4786 17.5796C50.4868 17.5769 50.4943 17.5726 50.5007 17.5668C50.5071 17.5611 50.5122 17.554 50.5157 17.5462C50.5192 17.5383 50.5209 17.5298 50.5209 17.5212V16.5666C50.5241 16.5591 50.5257 16.551 50.5257 16.5429C50.5257 16.5348 50.5241 16.5267 50.5209 16.5192C50.5035 16.5124 50.4841 16.5124 50.4667 16.5192C50.188 16.5481 49.9067 16.4989 49.6543 16.377C49.4478 16.2646 49.2803 16.0923 49.1736 15.8828C48.9634 15.3133 48.8623 14.7092 48.8757 14.1023V5.55164L50.3381 5.5855C50.6463 5.58295 50.9543 5.60559 51.2589 5.6532C51.5149 5.6906 51.7682 5.74488 52.0171 5.81568C52.2189 5.87509 52.4158 5.94978 52.6062 6.03909C52.7574 6.10603 52.8951 6.20011 53.0124 6.31667C53.1378 6.42167 53.2493 6.54225 53.3441 6.67548C53.4553 6.83513 53.5548 7.00256 53.642 7.17647C53.7429 7.38136 53.8266 7.59421 53.8925 7.81286C53.9738 8.06335 54.0618 8.33416 54.1498 8.63204C54.1539 8.64521 54.162 8.6568 54.1728 8.66527C54.1837 8.67374 54.197 8.67868 54.2107 8.67943H55.1789C55.1968 8.67943 55.2141 8.6723 55.2268 8.6596C55.2395 8.6469 55.2466 8.62968 55.2466 8.61173V4.42781C55.2466 4.40985 55.2395 4.39263 55.2268 4.37994C55.2141 4.36724 55.1968 4.36011 55.1789 4.36011Z" fill="#825171"/>
<path d="M69.4705 10.5411C69.4705 10.3854 69.4705 10.2229 69.4231 10.0604L69.3554 9.58651C69.3297 9.42411 69.2935 9.26355 69.2471 9.10583C69.0835 8.47498 68.8353 7.86919 68.5091 7.30498C68.1688 6.70781 67.7498 6.15904 67.2634 5.67339C66.7546 5.14465 66.1283 4.74338 65.4354 4.50216C64.6048 4.2982 63.7572 4.17128 62.9033 4.12304C62.0801 4.11654 61.2613 4.2446 60.4795 4.50216C59.7789 4.7398 59.1452 5.14135 58.6312 5.67339C58.1448 6.15578 57.7299 6.7052 57.399 7.30498C57.0869 7.87202 56.8437 8.47431 56.6745 9.09906C56.6339 9.26154 56.5933 9.42403 56.5594 9.57974C56.5256 9.73545 56.4917 9.9047 56.4714 10.0604C56.4613 10.2227 56.4613 10.3855 56.4714 10.5479V10.9879C56.4596 11.8163 56.5691 12.642 56.7964 13.4387C56.9949 14.1252 57.3287 14.7651 57.7781 15.3208C58.2067 15.7963 58.6781 16.2314 59.1863 16.6206C59.6527 16.9778 60.174 17.2568 60.73 17.4466C60.9153 17.5163 61.1054 17.5729 61.2987 17.6158C61.4882 17.6632 62.2668 17.7919 62.4699 17.8054H62.998C63.1831 17.8054 63.3591 17.8054 63.5261 17.8054C63.7089 17.8054 64.474 17.6632 64.6635 17.6158C64.8531 17.5685 65.0495 17.5143 65.2661 17.4466C65.8146 17.2493 66.3303 16.9709 66.7962 16.6206C67.2906 16.2345 67.7443 15.799 68.1503 15.3208C68.6179 14.7722 68.964 14.1307 69.1658 13.4387C69.3927 12.6419 69.5022 11.8163 69.4908 10.9879C69.4908 10.8525 69.484 10.7036 69.4705 10.5411ZM66.4983 10.5411V11.5092C66.473 11.5973 66.4593 11.6884 66.4577 11.78V12.0373C66.4577 12.193 66.4577 12.3555 66.4577 12.5247C66.4577 12.694 66.4577 12.87 66.4035 13.046C66.3394 13.5062 66.2329 13.9595 66.0853 14.4C65.935 14.8132 65.7349 15.2065 65.4895 15.5713C65.2659 15.9482 64.9262 16.2427 64.5214 16.4108C64.0274 16.6116 63.4973 16.7084 62.9642 16.6951C62.4265 16.7116 61.8913 16.6148 61.3935 16.4108C60.9864 16.2377 60.6417 15.9449 60.405 15.5713C60.1769 15.1856 59.9843 14.78 59.8295 14.3594C59.6703 13.923 59.5679 13.4679 59.5248 13.0054C59.5248 12.87 59.5248 12.7414 59.4775 12.6195V12.4773C59.4677 12.315 59.4677 12.1522 59.4775 11.9899V9.93855C59.4769 9.72552 59.4927 9.51276 59.5248 9.30216C59.5587 9.07198 59.5858 8.8418 59.6061 8.62515C59.6762 8.22364 59.7897 7.83092 59.9446 7.45393C60.1038 7.06267 60.3058 6.69029 60.5472 6.34363C60.7857 6.01333 61.1051 5.7499 61.4747 5.57861C61.9298 5.3964 62.4133 5.29558 62.9033 5.28073C63.4259 5.29788 63.9424 5.39845 64.4333 5.57861C64.8133 5.74518 65.1442 6.00621 65.3947 6.33686C65.6394 6.68145 65.8417 7.05423 65.9973 7.44716C66.1572 7.81412 66.2753 8.19792 66.3494 8.5913C66.3982 8.81447 66.4321 9.04064 66.4509 9.26831C66.4647 9.49377 66.4647 9.71986 66.4509 9.94532V10.2635C66.458 10.3484 66.4738 10.4324 66.4983 10.514V10.5411Z" fill="#825171"/>
<path d="M36.0934 28.9964C36.0769 28.8417 36.052 28.688 36.0189 28.536C36.0044 28.3529 35.9727 28.1715 35.9241 27.9944C35.87 27.8251 35.8158 27.6491 35.7481 27.4799C35.5797 27.086 35.3513 26.7206 35.0711 26.3966C34.7296 26.0307 34.3506 25.7017 33.9404 25.415C33.416 25.081 32.8321 24.8511 32.2207 24.738C31.4227 24.5577 30.6082 24.4602 29.7902 24.4469H26.4456V18.4892H29.4246H29.7496C29.8215 18.4987 29.8943 18.4987 29.9662 18.4892H30.1626H30.5485C30.6851 18.5 30.8209 18.5204 30.9547 18.5501C31.2128 18.6147 31.4644 18.7031 31.7062 18.8141C31.9612 18.9372 32.2038 19.0846 32.4306 19.2542C32.6884 19.4301 32.9035 19.6614 33.0603 19.9312C33.2583 20.2628 33.4088 20.6206 33.5071 20.9941C33.5124 21.0078 33.5217 21.0196 33.5338 21.0281C33.5458 21.0365 33.5601 21.0412 33.5748 21.0415H34.4076C34.4167 21.0426 34.426 21.0416 34.4347 21.0386C34.4434 21.0355 34.4513 21.0306 34.4578 21.0241C34.4644 21.0176 34.4693 21.0096 34.4723 21.0009C34.4754 20.9922 34.4764 20.9829 34.4753 20.9738V17.4263C34.4782 17.4106 34.4782 17.3945 34.4753 17.3789C34.4599 17.3737 34.4432 17.3737 34.4279 17.3789H22.8167C22.7993 17.3804 22.7829 17.388 22.7706 17.4004C22.7582 17.4128 22.7505 17.4291 22.749 17.4466V18.2725C22.7503 18.289 22.7569 18.3045 22.7679 18.3168C22.779 18.329 22.7937 18.3373 22.81 18.3402C23.0451 18.3625 23.2745 18.4267 23.487 18.5298C23.659 18.6062 23.8033 18.7339 23.9 18.8954C24.0038 19.0776 24.0813 19.2736 24.1302 19.4776C24.1966 19.7501 24.2285 20.0299 24.225 20.3103V31.8533C24.2291 32.1196 24.2019 32.3855 24.1437 32.6454C24.0937 32.8469 24.0162 33.0405 23.9135 33.2209C23.8131 33.3792 23.6699 33.506 23.5005 33.5865C23.2876 33.6854 23.0579 33.7428 22.8235 33.7557C22.8149 33.7548 22.8063 33.7556 22.7981 33.7583C22.7899 33.7609 22.7824 33.7652 22.776 33.771C22.7696 33.7768 22.7645 33.7838 22.761 33.7917C22.7575 33.7995 22.7557 33.8081 22.7558 33.8167V34.6562C22.7573 34.6736 22.7649 34.69 22.7773 34.7023C22.7897 34.7147 22.8061 34.7223 22.8235 34.7239H30.6771C31.353 34.7316 32.0262 34.638 32.6743 34.4463C33.2343 34.28 33.7501 33.9909 34.1841 33.6C34.5726 33.2464 34.916 32.8462 35.2065 32.4085C35.4768 32.0024 35.6888 31.5602 35.8361 31.0951C35.9408 30.8232 36.009 30.5386 36.0392 30.2488C36.0732 30.1135 36.0936 29.9752 36.1001 29.8359C36.1001 29.6937 36.1001 29.5583 36.1001 29.4229C36.1072 29.2807 36.1049 29.1382 36.0934 28.9964ZM26.4456 25.5368H29.5938H29.9324L30.3724 25.5775C30.5481 25.5908 30.7224 25.6179 30.8938 25.6587C31.0721 25.7056 31.2464 25.7668 31.4151 25.8415C31.6911 25.9391 31.9495 26.0809 32.1801 26.2612C32.4361 26.4544 32.6639 26.6823 32.8571 26.9382C33.0971 27.2391 33.2702 27.5876 33.3649 27.9605C33.4838 28.4387 33.5407 28.9302 33.5342 29.4229C33.5419 29.994 33.4713 30.5635 33.3243 31.1154C33.2158 31.5381 33.0068 31.9283 32.715 32.2528C32.4704 32.5163 32.1901 32.7441 31.8822 32.9298C31.5914 33.1088 31.2799 33.252 30.9547 33.3563L30.3927 33.4782C30.2235 33.4782 30.0475 33.5323 29.8579 33.5459C29.5677 33.5798 29.2747 33.5798 28.9845 33.5459H26.4456V25.5368Z" fill="#825171"/>
<path d="M49.5658 31.9887L48.9497 31.4404C48.944 31.4344 48.9372 31.4297 48.9296 31.4265C48.9221 31.4232 48.9139 31.4216 48.9057 31.4216C48.8975 31.4216 48.8893 31.4232 48.8818 31.4265C48.8742 31.4297 48.8674 31.4344 48.8617 31.4404C48.5909 31.7112 48.2998 31.9684 48.0019 32.2121C47.6818 32.4709 47.3371 32.6977 46.9728 32.8892C46.6179 33.0853 46.2405 33.2376 45.8489 33.3428C45.471 33.4418 45.0819 33.4918 44.6912 33.4917C44.004 33.5202 43.3222 33.3586 42.721 33.0246C42.2016 32.7044 41.8128 32.2101 41.6242 31.6299C41.3993 30.9924 41.2471 30.3315 41.1706 29.6598C41.0913 28.9338 41.0641 28.203 41.0893 27.4731V27.3038V27.2497C41.0925 27.2422 41.0941 27.2341 41.0941 27.226C41.0941 27.2178 41.0925 27.2098 41.0893 27.2023V27.1346H49.146C49.1635 27.133 49.1798 27.1254 49.1922 27.113C49.2046 27.1007 49.2122 27.0843 49.2138 27.0669C49.2403 26.3411 49.1465 25.6159 48.9362 24.9207C48.7237 24.229 48.3864 23.5819 47.9409 23.0116C47.5251 22.4277 46.9654 21.9613 46.3161 21.6576C45.6232 21.3524 44.8727 21.2 44.1157 21.2107C43.343 21.2093 42.5789 21.3732 41.8747 21.6914C41.1525 22.0619 40.4997 22.5543 39.9452 23.147C39.3209 23.7933 38.8572 24.5771 38.5911 25.4353C38.2756 26.4612 38.1248 27.5306 38.1442 28.6037C38.1278 29.5014 38.2488 30.3964 38.5031 31.2576C38.7155 31.951 39.089 32.5843 39.5931 33.1058C40.0486 33.5629 40.5686 33.9507 41.1367 34.2567C41.6751 34.5375 42.2561 34.7273 42.8564 34.8186C42.9702 34.8443 43.0855 34.8624 43.2017 34.8728C43.3168 34.8728 43.4387 34.8728 43.5808 34.927H43.7704C43.8332 34.9167 43.8972 34.9167 43.96 34.927H44.2985C44.7957 34.9268 45.2911 34.8677 45.7744 34.7509C46.2836 34.6297 46.7718 34.4335 47.2233 34.1687C47.6741 33.8945 48.102 33.5843 48.5029 33.2412C48.9191 32.885 49.2938 32.483 49.62 32.0429C49.6185 32.029 49.6123 32.0161 49.6025 32.0062C49.5926 31.9964 49.5797 31.9902 49.5658 31.9887ZM42.5382 22.8965C42.7551 22.7357 43.0011 22.6185 43.2626 22.5512C43.3069 22.5636 43.3537 22.5636 43.398 22.5512H43.4657C43.4732 22.5544 43.4813 22.556 43.4894 22.556C43.4976 22.556 43.5056 22.5544 43.5131 22.5512H43.5537H43.7095C43.7495 22.5467 43.7885 22.5353 43.8246 22.5174H44.0074C44.3241 22.5109 44.6392 22.5661 44.9349 22.6798C45.1922 22.7775 45.4237 22.9327 45.6119 23.1334C45.7802 23.3429 45.9255 23.5699 46.0452 23.8104C46.1576 24.0266 46.2484 24.2534 46.3161 24.4875C46.3586 24.6408 46.3903 24.7969 46.4108 24.9546C46.423 25.0988 46.423 25.2437 46.4108 25.3879V25.591C46.3999 25.6514 46.3999 25.7133 46.4108 25.7738V25.9972L41.1774 26.031C41.1706 25.5495 41.2276 25.0692 41.3466 24.6026C41.4346 24.2339 41.6034 23.8893 41.8408 23.5938C42.04 23.3303 42.2746 23.0956 42.5382 22.8965Z" fill="#825171"/>
<path d="M58.0965 24.5552L61.0754 34.6697C61.0786 34.6853 61.0871 34.6992 61.0995 34.7091C61.1118 34.719 61.1273 34.7242 61.1431 34.7239H64.9481C64.966 34.7239 64.9832 34.7168 64.9959 34.7041C65.0086 34.6914 65.0158 34.6741 65.0158 34.6562V33.7016C65.0158 33.6837 65.0086 33.6664 64.9959 33.6537C64.9832 33.641 64.966 33.6339 64.9481 33.6339H64.5622C64.3642 33.6373 64.1686 33.5907 63.9935 33.4985C63.7975 33.3894 63.6411 33.2212 63.5466 33.0178C63.4129 32.773 63.2953 32.5197 63.1945 32.2596C63.093 32.0023 62.9982 31.718 62.9034 31.3998L60.0193 21.5493C60.0176 21.5343 60.0104 21.5205 59.9992 21.5105C59.9879 21.5005 59.9734 21.495 59.9583 21.4951H55.4357C55.4183 21.4966 55.4019 21.5043 55.3896 21.5166C55.3772 21.529 55.3696 21.5454 55.368 21.5628V22.5851C55.3696 22.6025 55.3772 22.6189 55.3896 22.6313C55.4019 22.6437 55.4183 22.6513 55.4357 22.6528H55.8555C55.8843 22.6609 55.9147 22.6609 55.9435 22.6528H55.9977C56.1106 22.6785 56.2215 22.7125 56.3294 22.7544C56.4315 22.7989 56.529 22.8533 56.6205 22.9168C56.7179 22.9924 56.7928 23.093 56.8372 23.208C56.8779 23.367 56.8894 23.5322 56.8711 23.6954C56.8685 23.8679 56.8527 24.0399 56.8237 24.2099C56.8237 24.4266 56.7356 24.6771 56.6679 24.9682C56.6002 25.2593 56.5258 25.5572 56.4513 25.8483C56.3768 26.1394 56.3091 26.4034 56.194 26.7419C56.1755 26.8065 56.1529 26.8698 56.1263 26.9315C56.1175 26.983 56.1175 27.0357 56.1263 27.0872C56.1013 27.1364 56.0831 27.1888 56.0721 27.2429C56.0635 27.2946 56.0476 27.3447 56.0248 27.3919C55.9367 27.6898 55.8487 27.9606 55.7675 28.2111C55.6862 28.4615 55.6185 28.7053 55.5508 28.949C55.4692 29.1456 55.3991 29.3468 55.341 29.5515C55.3056 29.6959 55.2627 29.8383 55.2123 29.9781C55.1175 30.2421 55.0295 30.479 54.9415 30.6551L54.6707 31.2305L54.4134 31.6706C54.3417 31.7964 54.2602 31.9163 54.1697 32.0294C54.0817 32.1174 53.9937 32.2054 53.9056 32.2799C53.8259 32.3501 53.7371 32.4093 53.6416 32.4559C53.5662 32.4975 53.4868 32.5315 53.4046 32.5575C53.326 32.5678 53.2463 32.5678 53.1677 32.5575H52.9104C52.8593 32.5704 52.8058 32.5704 52.7547 32.5575L52.6328 32.4965H52.5583C52.5508 32.4934 52.5428 32.4917 52.5346 32.4917C52.5265 32.4917 52.5184 32.4934 52.5109 32.4965L52.4229 32.4491C52.3832 32.4369 52.3447 32.421 52.3078 32.4017H52.2198C52.2123 32.3986 52.2043 32.397 52.1961 32.397C52.188 32.397 52.1799 32.3986 52.1724 32.4017H51.7662C51.7662 32.4017 51.7256 32.4017 51.712 32.4356H51.6511C51.5183 32.4524 51.3897 32.4938 51.272 32.5575C51.1535 32.6255 51.0403 32.7025 50.9335 32.7876C50.8389 32.8822 50.7611 32.9921 50.7033 33.1126C50.6403 33.2387 50.6078 33.3779 50.6085 33.5188C50.6064 33.7247 50.6432 33.9291 50.7168 34.1214C50.7875 34.31 50.8984 34.4809 51.0418 34.6223C51.2104 34.7552 51.4004 34.8582 51.6037 34.927C51.8635 35.0127 52.1359 35.0539 52.4094 35.0489C53.0181 35.0534 53.611 34.8557 54.0952 34.4869C54.6569 34.0368 55.1026 33.4588 55.3951 32.8012C55.7539 32.0497 55.7878 31.9617 56.4513 30.2759C57.1802 28.4256 57.7311 26.5101 58.0965 24.5552Z" fill="#825171"/>
<path d="M86.5456 34.7239H81.0684C81.0509 34.7224 81.0346 34.7147 81.0222 34.7024C81.0098 34.69 81.0022 34.6736 81.0007 34.6562V33.6678C80.9969 33.6592 80.995 33.65 80.995 33.6407C80.995 33.6314 80.9969 33.6221 81.0007 33.6136C81.0101 33.6088 81.0205 33.6064 81.0311 33.6064C81.0417 33.6064 81.0521 33.6088 81.0616 33.6136C81.1293 33.6136 81.1834 33.6136 81.1902 33.6136C81.2056 33.6084 81.2222 33.6084 81.2376 33.6136H81.2918C81.2918 33.6136 81.2918 33.5797 81.3392 33.5797H81.4069C81.5381 33.5316 81.6631 33.4679 81.7792 33.3902C81.9147 33.2981 82.0356 33.1863 82.1381 33.0584C82.2522 32.9222 82.3354 32.7629 82.3818 32.5913C82.4388 32.3818 82.4662 32.1653 82.463 31.9481V25.0494C82.4671 24.7366 82.4445 24.4241 82.3953 24.1151C82.3656 23.8806 82.2993 23.6522 82.199 23.4381C82.1031 23.2515 81.9579 23.0946 81.7792 22.9845C81.5423 22.8363 81.2844 22.7244 81.0142 22.6528C81.001 22.6487 80.9894 22.6406 80.981 22.6298C80.9725 22.6189 80.9675 22.6056 80.9668 22.5919V21.5628C80.9683 21.5454 80.9759 21.529 80.9883 21.5166C81.0007 21.5043 81.0171 21.4966 81.0345 21.4951H86.5117C86.5285 21.4968 86.544 21.5047 86.5553 21.5172C86.5665 21.5297 86.5727 21.546 86.5726 21.5628V22.5513C86.5734 22.5644 86.5698 22.5775 86.5625 22.5885C86.5552 22.5995 86.5445 22.6078 86.532 22.6122C86.2464 22.7038 85.9717 22.8264 85.7128 22.9778C85.5336 23.078 85.393 23.2353 85.3134 23.4246C85.2166 23.639 85.1549 23.8676 85.1306 24.1016C85.0948 24.4276 85.079 24.7554 85.0832 25.0833V31.9008C85.0577 32.1282 85.0784 32.3585 85.1441 32.5778C85.2111 32.7741 85.3222 32.9525 85.4691 33.0991C85.5969 33.2484 85.7534 33.3704 85.9295 33.4579C86.1136 33.5491 86.3136 33.6043 86.5185 33.6204C86.534 33.6235 86.5479 33.632 86.5578 33.6444C86.5677 33.6568 86.573 33.6722 86.5726 33.6881V34.6426C86.5727 34.6595 86.5665 34.6758 86.5553 34.6883C86.544 34.7008 86.5285 34.7087 86.5117 34.7104L86.5456 34.7239Z" fill="#825171"/>
<path d="M78.4614 27.947C78.2497 27.3516 77.9019 26.8138 77.4459 26.3764C77.0001 25.9386 76.464 25.6035 75.8751 25.3947C75.2219 25.1701 74.5347 25.0602 73.844 25.0697C73.5802 25.0562 73.3158 25.0562 73.0519 25.0697C72.8109 25.0893 72.5712 25.1232 72.3342 25.1713C72.0837 25.2187 71.8603 25.2796 71.6572 25.3405L70.9802 25.5436L70.7161 25.6316C70.6404 25.6631 70.5679 25.7016 70.4995 25.7467C70.3979 25.7467 70.3167 25.8077 70.2354 25.8348L70.1068 25.8889V25.0494C70.1054 24.7259 70.1235 24.4026 70.161 24.0813C70.188 23.8369 70.2495 23.5976 70.3438 23.3704C70.4304 23.1736 70.5806 23.0115 70.7703 22.9101C71.0297 22.7718 71.3048 22.665 71.5895 22.5919C71.6027 22.5878 71.6143 22.5797 71.6227 22.5688C71.6312 22.5579 71.6361 22.5447 71.6369 22.5309V21.5628C71.6369 21.5449 71.6298 21.5276 71.6171 21.5149C71.6044 21.5022 71.5872 21.4951 71.5692 21.4951H66.0784C66.0605 21.4951 66.0433 21.5022 66.0306 21.5149C66.0179 21.5276 66.0107 21.5449 66.0107 21.5628V22.5851C66.0119 22.5996 66.0168 22.6135 66.0252 22.6254C66.0335 22.6373 66.0449 22.6468 66.0581 22.6528C66.3379 22.7181 66.6069 22.8229 66.857 22.9642C67.0343 23.0671 67.1795 23.2171 67.2768 23.3975C67.3776 23.6114 67.4438 23.8399 67.4731 24.0745C67.522 24.3903 67.5446 24.7096 67.5408 25.0291V31.2576C67.5446 31.5771 67.522 31.8964 67.4731 32.2122C67.4396 32.459 67.3736 32.7003 67.2768 32.9298C67.185 33.1255 67.0332 33.2867 66.8435 33.3902C66.6058 33.5187 66.3417 33.5905 66.0717 33.6001C66.0555 33.603 66.0407 33.6113 66.0297 33.6235C66.0186 33.6358 66.012 33.6513 66.0107 33.6678V34.6562C66.0107 34.6651 66.0125 34.6739 66.0159 34.6821C66.0193 34.6903 66.0243 34.6978 66.0306 34.7041C66.0369 34.7103 66.0443 34.7153 66.0525 34.7187C66.0607 34.7221 66.0696 34.7239 66.0784 34.7239H73.6612C74.4033 34.7369 75.1431 34.6365 75.8548 34.426C76.4399 34.2557 76.9668 33.9278 77.3782 33.4782C77.7589 33.0789 78.0743 32.6219 78.3125 32.1242C78.5357 31.6531 78.6864 31.1509 78.7593 30.6348V30.2624C78.7547 30.2378 78.7547 30.2125 78.7593 30.1879V30.0187C78.783 29.316 78.6822 28.6146 78.4614 27.947ZM75.6314 31.3321C75.546 31.6809 75.3892 32.0082 75.171 32.2934C74.9734 32.5455 74.746 32.7728 74.494 32.9704C74.2887 33.1319 74.0605 33.262 73.8169 33.3563C73.6595 33.4246 73.4964 33.479 73.3295 33.5188C73.1735 33.5649 73.0115 33.5877 72.8488 33.5865C72.6049 33.6316 72.3547 33.6316 72.1108 33.5865H70.1677V27.4934L70.4589 27.3513C70.56 27.2961 70.6639 27.2464 70.7703 27.2023L70.9599 27.1346L71.1224 27.0737C71.1874 27.0712 71.2516 27.0575 71.3119 27.0331L71.5015 26.9654C71.5447 26.946 71.5902 26.9323 71.6369 26.9247C71.6973 26.9129 71.7563 26.8948 71.8129 26.8706C71.8669 26.8767 71.9214 26.8767 71.9754 26.8706L72.1582 26.8164L72.5103 26.769H72.8285H73.0519C73.1007 26.7816 73.152 26.7816 73.2009 26.769H73.3227C73.414 26.793 73.5067 26.811 73.6003 26.8232L73.8643 26.8706C74.1033 26.9427 74.3311 27.0475 74.5414 27.182C74.7748 27.3386 74.9865 27.5252 75.171 27.7371C75.3819 27.9845 75.5346 28.276 75.6179 28.5902C75.7432 29.0011 75.8137 29.4268 75.8277 29.8562C75.8293 30.3459 75.7632 30.8334 75.6314 31.305V31.3321Z" fill="#825171"/>
<path d="M100.932 33.6339H100.648C100.559 33.6244 100.471 33.6086 100.384 33.5865C100.295 33.5469 100.209 33.5016 100.127 33.4511C100.053 33.4074 99.9847 33.3551 99.9234 33.2954C99.8795 33.2489 99.8319 33.2058 99.7812 33.1668C99.7287 33.1325 99.6809 33.0916 99.6391 33.0449C99.5813 33.0069 99.529 32.9614 99.4833 32.9095C99.4427 32.8553 99.3953 32.7944 99.3479 32.7199L99.0297 32.3137C98.8947 32.1439 98.7746 31.9627 98.6709 31.7721L95.4008 27.2226L97.3778 24.65L97.7027 24.237L97.9939 23.8579C98.0335 23.7931 98.0788 23.7319 98.1293 23.6751C98.1754 23.6174 98.2302 23.5671 98.2918 23.5261L98.5626 23.2553C98.6632 23.1517 98.7798 23.0649 98.9079 22.9981C99.0278 22.9283 99.1549 22.8715 99.287 22.8288C99.4132 22.7827 99.5421 22.7443 99.6729 22.7137C99.8201 22.6777 99.9693 22.6506 100.12 22.6325C100.136 22.6295 100.151 22.6213 100.162 22.609C100.173 22.5968 100.179 22.5812 100.181 22.5648V21.5628C100.179 21.5454 100.172 21.529 100.159 21.5166C100.147 21.5043 100.13 21.4966 100.113 21.4951H95.7258C95.7084 21.4966 95.692 21.5043 95.6796 21.5166C95.6672 21.529 95.6596 21.5454 95.6581 21.5628V22.5851C95.6596 22.6025 95.6672 22.6189 95.6796 22.6313C95.692 22.6437 95.7084 22.6513 95.7258 22.6528C95.8406 22.6411 95.9563 22.6411 96.0711 22.6528C96.1522 22.6724 96.2299 22.7044 96.3013 22.7476C96.3561 22.7819 96.4024 22.8282 96.4367 22.883L96.5112 23.0319V23.1741C96.4926 23.1976 96.4809 23.2257 96.4773 23.2553V23.3501C96.4567 23.3696 96.4446 23.3963 96.4435 23.4246C96.4255 23.4415 96.4116 23.4624 96.4028 23.4855C96.4001 23.508 96.4001 23.5307 96.4028 23.5532L96.3554 23.6209C96.3467 23.6404 96.3353 23.6586 96.3216 23.6751L96.2539 23.7563V23.8308L96.2065 23.8917C96.1975 23.9128 96.1836 23.9314 96.1659 23.9459C96.1434 23.9713 96.123 23.9985 96.1049 24.0271C96.107 24.0451 96.107 24.0633 96.1049 24.0813L95.9898 24.1896L94.6832 26.0514L93.5525 24.5281C93.3612 24.2911 93.1848 24.0424 93.0244 23.7834C92.9093 23.5938 92.8213 23.4449 92.7739 23.3569C92.7265 23.2689 92.6995 23.1538 92.6791 23.0861C92.6607 23.0502 92.6492 23.0112 92.6453 22.971C92.6435 22.9385 92.6486 22.9061 92.6603 22.8757C92.672 22.8454 92.6899 22.8179 92.713 22.795C92.7626 22.7452 92.8265 22.712 92.8958 22.7002C93.0119 22.675 93.1295 22.657 93.2478 22.646C93.3973 22.6325 93.5448 22.603 93.6879 22.558C93.7011 22.5539 93.7127 22.5459 93.7212 22.535C93.7296 22.5241 93.7346 22.5109 93.7353 22.4971V21.5628C93.7338 21.5454 93.7262 21.529 93.7138 21.5166C93.7014 21.5043 93.6851 21.4966 93.6676 21.4951H87.8857C87.8683 21.4966 87.852 21.5043 87.8396 21.5166C87.8272 21.529 87.8196 21.5454 87.818 21.5628V22.5851C87.8196 22.6025 87.8272 22.6189 87.8396 22.6313C87.852 22.6437 87.8683 22.6513 87.8857 22.6528C87.9261 22.6461 87.9673 22.6461 88.0076 22.6528L88.1904 22.707H88.3123C88.3598 22.7184 88.4054 22.7367 88.4477 22.7611C88.5368 22.7826 88.6232 22.8144 88.705 22.8559C88.7977 22.902 88.886 22.9564 88.969 23.0184C89.0922 23.1178 89.2097 23.2241 89.321 23.3366C89.4429 23.4584 89.5716 23.6006 89.707 23.7563C89.8424 23.912 89.9913 24.0881 90.147 24.2844C90.3027 24.4807 90.4652 24.6838 90.621 24.9072L93.038 28.2381L90.8579 31.1899L90.5329 31.63C90.4325 31.7629 90.324 31.8895 90.208 32.0091C90.126 32.1322 90.0331 32.2478 89.9304 32.3544L89.6054 32.6725C89.5272 32.7569 89.4435 32.8361 89.3549 32.9095C89.2737 32.9772 89.1992 33.0517 89.1383 33.1126C89.0601 33.1746 88.9762 33.229 88.8877 33.2751C88.8066 33.3244 88.723 33.3696 88.6372 33.4105C88.4803 33.5014 88.3083 33.5633 88.1295 33.5933C87.942 33.6335 87.7482 33.6335 87.5608 33.5933H87.5066C87.5004 33.6108 87.5004 33.6299 87.5066 33.6474V34.6359C87.5081 34.6533 87.5157 34.6697 87.5281 34.6821C87.5405 34.6944 87.5569 34.7021 87.5743 34.7036H92.7401C92.758 34.7036 92.7752 34.6964 92.7879 34.6838C92.8006 34.6711 92.8078 34.6538 92.8078 34.6359V33.7016C92.8078 33.6836 92.8006 33.6664 92.7879 33.6537C92.7752 33.641 92.758 33.6339 92.7401 33.6339H92.5708C92.429 33.6484 92.2861 33.6484 92.1443 33.6339C92.0198 33.6135 91.8974 33.5818 91.7787 33.5391C91.7257 33.5253 91.6761 33.5008 91.633 33.467C91.5899 33.4332 91.5543 33.3909 91.5282 33.3428C91.4697 33.235 91.4416 33.1133 91.4469 32.9907C91.4503 32.9264 91.4617 32.8627 91.4808 32.8012L91.5485 32.5371C91.6009 32.4087 91.6667 32.2862 91.7448 32.1716C91.8328 32.0429 91.9615 31.8669 92.1172 31.6706L93.8436 29.4026L95.7393 31.894C95.7421 31.9124 95.7498 31.9298 95.7618 31.9441C95.7737 31.9584 95.7894 31.9692 95.807 31.9752C95.807 31.9752 95.807 31.9752 95.8544 32.0497C95.878 32.0717 95.8985 32.0967 95.9154 32.1242C95.9373 32.1534 95.9555 32.1852 95.9695 32.219V32.2528C95.9708 32.2681 95.9758 32.2829 95.984 32.2959C95.9923 32.3089 96.0036 32.3196 96.0169 32.3273C96.0126 32.3428 96.0126 32.3592 96.0169 32.3747C96.0129 32.3902 96.0129 32.4065 96.0169 32.4221C96.0346 32.4366 96.0486 32.4552 96.0575 32.4762L96.1049 32.5371C96.0988 32.5639 96.0988 32.5917 96.1049 32.6184C96.1161 32.6585 96.132 32.6971 96.1523 32.7335V32.7673C96.1521 32.7815 96.1549 32.7955 96.1608 32.8084C96.1667 32.8213 96.1753 32.8327 96.1862 32.8418V33.0381C96.167 33.1238 96.1301 33.2045 96.0779 33.2751C96.024 33.3509 95.9628 33.4212 95.8951 33.485C95.8276 33.5514 95.7434 33.5982 95.6513 33.6204C95.5259 33.6557 95.3957 33.6717 95.2654 33.6678H95.0826C95.0771 33.6563 95.0684 33.6467 95.0576 33.6399C95.0469 33.6331 95.0344 33.6296 95.0217 33.6296C95.009 33.6296 94.9965 33.6331 94.9857 33.6399C94.9749 33.6467 94.9663 33.6563 94.9607 33.6678V34.6562C94.9607 34.6741 94.9679 34.6914 94.9806 34.7041C94.9933 34.7168 95.0105 34.7239 95.0285 34.7239H100.98C100.997 34.7224 101.013 34.7147 101.026 34.7024C101.038 34.69 101.046 34.6736 101.047 34.6562V33.7016C101.048 33.6878 101.045 33.6739 101.039 33.6616C101.033 33.6493 101.023 33.639 101.011 33.632C100.999 33.625 100.985 33.6214 100.971 33.6217C100.957 33.6221 100.944 33.6263 100.932 33.6339Z" fill="#825171"/>
<path d="M26.946 37.1409C26.9682 36.9065 27.03 36.6776 27.1288 36.4639C27.2276 36.2801 27.3783 36.1294 27.5621 36.0306C27.8238 35.8884 28.098 35.7705 28.3813 35.6786C28.3945 35.6745 28.4061 35.6664 28.4146 35.6555C28.423 35.6447 28.428 35.6314 28.4287 35.6177V34.6292C28.4272 34.6118 28.4196 34.5954 28.4072 34.5831C28.3948 34.5707 28.3785 34.563 28.361 34.5615H22.8229C22.8049 34.5615 22.7877 34.5687 22.775 34.5814C22.7623 34.594 22.7552 34.6113 22.7552 34.6292V35.6515C22.7549 35.6673 22.7601 35.6828 22.77 35.6952C22.7799 35.7075 22.7938 35.716 22.8093 35.7192C23.0862 35.77 23.3535 35.8637 23.6015 35.9968C23.7847 36.1053 23.9292 36.2688 24.0145 36.4639C24.1089 36.6807 24.1771 36.908 24.2176 37.1409C24.2626 37.4481 24.2852 37.758 24.2853 38.0684V40.5463H18.3341V38.1361C18.3325 37.8353 18.3483 37.5347 18.3815 37.2357C18.4077 36.989 18.4693 36.7473 18.5643 36.5181C18.6387 36.3187 18.7799 36.1512 18.9638 36.0442C19.2258 35.8881 19.5117 35.776 19.8101 35.7124C19.8246 35.7074 19.8374 35.6984 19.8469 35.6864C19.8565 35.6744 19.8625 35.66 19.8642 35.6447V34.6292C19.8627 34.6118 19.8551 34.5954 19.8427 34.5831C19.8303 34.5707 19.814 34.563 19.7965 34.5615H14.2855C14.268 34.563 14.2517 34.5707 14.2393 34.5831C14.2269 34.5954 14.2193 34.6118 14.2178 34.6292V35.6515C14.2189 35.666 14.2239 35.6799 14.2322 35.6918C14.2406 35.7037 14.2519 35.7132 14.2652 35.7192C14.5368 35.7865 14.7954 35.8986 15.0302 36.0509C15.2082 36.1589 15.3533 36.3134 15.45 36.4978C15.5503 36.7118 15.6166 36.9403 15.6463 37.1748C15.6957 37.486 15.7183 37.8008 15.714 38.1158V44.3375C15.7174 44.6413 15.6947 44.9448 15.6463 45.2447C15.6092 45.4952 15.5433 45.7405 15.45 45.9759C15.3705 46.1837 15.2224 46.3581 15.0302 46.4701C14.801 46.6014 14.5427 46.6735 14.2787 46.68C14.2666 46.6802 14.2547 46.6835 14.244 46.6894C14.2334 46.6953 14.2244 46.7037 14.2178 46.7139V47.7023C14.2193 47.7197 14.2269 47.7361 14.2393 47.7485C14.2517 47.7608 14.268 47.7685 14.2855 47.77H19.7965C19.814 47.7685 19.8303 47.7608 19.8427 47.7485C19.8551 47.7361 19.8627 47.7197 19.8642 47.7023V46.768C19.863 46.7516 19.8564 46.736 19.8453 46.7238C19.8343 46.7115 19.8195 46.7033 19.8033 46.7003C19.5077 46.6769 19.2198 46.594 18.957 46.4566C18.7668 46.3492 18.6259 46.1719 18.5643 45.9624C18.4757 45.7148 18.4144 45.4583 18.3815 45.1973C18.3473 44.8962 18.3315 44.5932 18.3341 44.2902V41.7717H24.2853V44.324C24.2856 44.6434 24.263 44.9624 24.2176 45.2786C24.1758 45.5354 24.1078 45.7872 24.0145 46.0301C23.9401 46.238 23.7869 46.4082 23.5879 46.504C23.35 46.6199 23.0873 46.6757 22.8229 46.6665C22.8049 46.6665 22.7877 46.6736 22.775 46.6863C22.7623 46.699 22.7552 46.7162 22.7552 46.7342V47.7226C22.7552 47.7405 22.7623 47.7578 22.775 47.7705C22.7877 47.7832 22.8049 47.7903 22.8229 47.7903H28.361C28.3785 47.7888 28.3948 47.7811 28.4072 47.7688C28.4196 47.7564 28.4272 47.74 28.4287 47.7226V46.768C28.4275 46.7516 28.4208 46.736 28.4098 46.7238C28.3988 46.7115 28.384 46.7033 28.3678 46.7003C28.1027 46.674 27.8464 46.5908 27.6163 46.4566C27.4268 46.3462 27.2702 46.1873 27.1627 45.9962C27.065 45.767 26.999 45.5256 26.9663 45.2786C26.9166 44.9515 26.894 44.6209 26.8986 44.2902V38.1361C26.8948 37.8038 26.9106 37.4714 26.946 37.1409Z" fill="#825171"/>
<path d="M43.3305 40.7156C43.3305 40.5599 43.3305 40.3974 43.2831 40.2349L43.2154 39.761C43.1897 39.5986 43.1535 39.438 43.1071 39.2803C42.9435 38.6495 42.6953 38.0437 42.3691 37.4795C42.02 36.893 41.5942 36.3557 41.1031 35.8817C40.5942 35.342 39.9658 34.9292 39.2683 34.6766C38.4377 34.4727 37.5901 34.3458 36.7362 34.2975C35.9109 34.2922 35.0901 34.4202 34.3056 34.6766C33.6167 34.9307 32.9974 35.3436 32.498 35.8817C32.0116 36.3641 31.5967 36.9135 31.2658 37.5133C30.9433 38.0643 30.6908 38.6533 30.5143 39.2668C30.4669 39.4293 30.433 39.5917 30.3992 39.7475C30.3606 39.9059 30.3312 40.0663 30.3111 40.2281C30.2864 40.3894 30.2751 40.5524 30.2773 40.7156V41.1556C30.2651 41.9841 30.3746 42.8098 30.6023 43.6064C30.8008 44.2929 31.1346 44.9328 31.584 45.4885C32.0135 45.9607 32.4823 46.3955 32.9854 46.7884C33.4508 47.1488 33.9723 47.4301 34.5291 47.6211C34.7144 47.6908 34.9045 47.7473 35.0978 47.7903C35.2939 47.8373 35.4929 47.8712 35.6936 47.8919C35.88 47.9387 36.0704 47.9682 36.2623 47.9799H36.7971C36.9822 47.9799 37.1582 47.9799 37.3252 47.9799C37.5168 47.9651 37.7069 47.9357 37.8939 47.8919C38.0854 47.8694 38.2753 47.8355 38.4626 47.7903C38.6454 47.7497 38.8485 47.6888 39.0584 47.6211C39.6191 47.4279 40.1467 47.1493 40.6224 46.7951C41.12 46.4128 41.5741 45.9768 41.9764 45.4953C42.4461 44.947 42.7945 44.3056 42.9988 43.6132C43.2284 42.8168 43.3402 41.9911 43.3305 41.1624C43.3305 41.027 43.3305 40.8781 43.3305 40.7156ZM40.3245 41.9274V42.1847C40.3245 42.3404 40.3245 42.5029 40.3245 42.6721C40.3245 42.8414 40.3245 43.0174 40.2703 43.1934C40.2062 43.6536 40.0997 44.1069 39.9521 44.5475C39.807 44.9743 39.6091 45.3814 39.3631 45.7593C39.1377 46.1374 38.7955 46.432 38.3882 46.5988C37.3824 46.9782 36.2728 46.9782 35.267 46.5988C34.86 46.4257 34.5153 46.1329 34.2786 45.7593C34.0476 45.3751 33.8549 44.9692 33.7031 44.5475C33.5439 44.111 33.4415 43.656 33.3984 43.1934L33.3375 42.7331V42.6518C33.3279 42.4895 33.3279 42.3267 33.3375 42.1644V40.113C33.3393 39.8998 33.3574 39.6871 33.3916 39.4766C33.3916 39.2465 33.4526 39.0163 33.4729 38.7996C33.543 38.3981 33.6565 38.0054 33.8114 37.6284C33.972 37.2379 34.174 36.8656 34.414 36.5181C34.6664 36.1839 35.0028 35.9223 35.3889 35.7599C35.8441 35.5781 36.3275 35.4772 36.8174 35.462C37.3378 35.4975 37.8518 35.5976 38.3475 35.7599C38.7266 35.9248 39.0558 36.1862 39.3022 36.5181C39.5491 36.8503 39.7538 37.2119 39.9115 37.5946C40.0662 37.9734 40.1775 38.3686 40.2432 38.7726C40.3311 39.2049 40.3764 39.6448 40.3786 40.086V40.4042C40.3671 40.5008 40.3671 40.5986 40.3786 40.6953V41.6634C40.3449 41.7487 40.32 41.8371 40.3042 41.9274H40.3245Z" fill="#825171"/>
<path d="M55.7875 37.1071C55.8066 36.8729 55.8662 36.6438 55.9635 36.4301C56.0623 36.2462 56.213 36.0955 56.3968 35.9968C56.6585 35.8545 56.9328 35.7367 57.2161 35.6447C57.2298 35.6416 57.242 35.6338 57.2506 35.6227C57.2593 35.6116 57.2638 35.5979 57.2635 35.5838V34.6021C57.2635 34.5842 57.2563 34.5669 57.2436 34.5543C57.2309 34.5416 57.2137 34.5344 57.1957 34.5344H51.6576C51.6397 34.5344 51.6224 34.5416 51.6097 34.5543C51.597 34.5669 51.5899 34.5842 51.5899 34.6021V35.6244C51.5906 35.6382 51.5956 35.6514 51.6041 35.6623C51.6125 35.6732 51.6241 35.6812 51.6373 35.6853C51.9175 35.7526 52.1865 35.8597 52.4362 36.0035C52.6132 36.1067 52.7584 36.2566 52.856 36.4368C52.9546 36.6515 53.0208 36.8797 53.0523 37.1138C53.1011 37.4296 53.1238 37.7489 53.12 38.0684V40.2687C52.797 40.3901 52.4669 40.4919 52.1315 40.5734C51.8168 40.6513 51.4982 40.7124 51.1769 40.7561L50.3916 40.8103H49.8567C49.4647 40.8274 49.0732 40.7652 48.7057 40.6275C48.4677 40.5377 48.2704 40.3645 48.1506 40.1401C48.0615 39.8958 47.9935 39.6444 47.9475 39.3886C47.8989 39.1069 47.8763 38.8214 47.8798 38.5356V37.3914C47.875 37.1394 47.9093 36.8882 47.9813 36.6467C48.037 36.4509 48.1502 36.2764 48.3063 36.1457C48.4339 36.0173 48.5828 35.912 48.7464 35.8343C48.9207 35.7562 49.102 35.695 49.288 35.6515C49.3029 35.6498 49.3168 35.6427 49.3268 35.6314C49.3368 35.6202 49.3422 35.6056 49.3421 35.5906V34.6021C49.3421 34.5842 49.335 34.5669 49.3223 34.5543C49.3096 34.5416 49.2924 34.5344 49.2744 34.5344H43.8582C43.8402 34.5344 43.823 34.5416 43.8103 34.5543C43.7976 34.5669 43.7905 34.5842 43.7905 34.6021V35.6244C43.7895 35.6321 43.7902 35.6398 43.7925 35.6472C43.7948 35.6546 43.7986 35.6614 43.8037 35.6672C43.8088 35.6729 43.8152 35.6775 43.8222 35.6807C43.8293 35.6838 43.8369 35.6854 43.8446 35.6853C43.8537 35.6984 43.8659 35.7089 43.8801 35.716C43.8943 35.7231 43.91 35.7265 43.9259 35.726H44.0071C44.1699 35.7447 44.3268 35.7978 44.4675 35.8817C44.6132 35.9693 44.7514 36.0689 44.8805 36.1796C45.016 36.3157 45.116 36.4831 45.1716 36.667C45.2447 36.885 45.2791 37.1141 45.2732 37.344V39.7068C45.2647 39.8036 45.2647 39.901 45.2732 39.9979C45.2748 40.0973 45.2931 40.1957 45.3273 40.289C45.3615 40.377 45.3887 40.4675 45.4086 40.5598C45.4851 40.8045 45.6043 41.0337 45.7606 41.2368C45.9348 41.4584 46.1348 41.6584 46.3564 41.8326C46.6555 42.0355 46.9912 42.1781 47.3449 42.2523C47.8262 42.3491 48.3164 42.3945 48.8073 42.3877H49.2677C49.4437 42.3877 49.6265 42.3877 49.8364 42.3403C50.0463 42.293 50.2088 42.2862 50.3983 42.2523L51.0009 42.1372L51.5561 41.9951L52.1518 41.8597C52.3346 41.8191 52.5174 41.7649 52.6867 41.7107C52.8262 41.6619 52.9619 41.6031 53.0929 41.5347V44.3443C53.0968 44.684 53.0741 45.0236 53.0252 45.3598C52.9912 45.5905 52.9345 45.8173 52.856 46.0368C52.7537 46.2364 52.5831 46.3926 52.3753 46.4769C52.0832 46.5952 51.7694 46.6505 51.4545 46.6394C51.4453 46.6383 51.4361 46.6393 51.4274 46.6423C51.4186 46.6453 51.4107 46.6503 51.4042 46.6568C51.3977 46.6633 51.3927 46.6712 51.3897 46.6799C51.3867 46.6886 51.3857 46.6979 51.3868 46.7071V47.6955C51.3867 47.7041 51.3885 47.7126 51.392 47.7205C51.3955 47.7284 51.4006 47.7354 51.407 47.7412C51.4134 47.7469 51.4209 47.7513 51.4291 47.7539C51.4373 47.7565 51.4459 47.7574 51.4545 47.7564H57.1957C57.2043 47.7574 57.213 47.7565 57.2211 47.7539C57.2293 47.7513 57.2369 47.7469 57.2433 47.7412C57.2497 47.7354 57.2548 47.7284 57.2583 47.7205C57.2617 47.7126 57.2635 47.7041 57.2635 47.6955V46.7138C57.2638 46.698 57.2585 46.6825 57.2486 46.6702C57.2387 46.6578 57.2248 46.6493 57.2093 46.6461C56.9429 46.6157 56.6852 46.5329 56.451 46.4024C56.2616 46.2911 56.1069 46.1294 56.0042 45.9353C55.9097 45.7185 55.8415 45.4912 55.8011 45.2583C55.7545 44.9286 55.7319 44.596 55.7334 44.2631V38.1023C55.732 37.7698 55.7501 37.4375 55.7875 37.1071Z" fill="#825171"/>
<path d="M70.1551 45.0212L69.539 44.4796C69.5333 44.4737 69.5264 44.4689 69.5189 44.4657C69.5113 44.4625 69.5032 44.4608 69.495 44.4608C69.4867 44.4608 69.4786 44.4625 69.471 44.4657C69.4635 44.4689 69.4566 44.4737 69.451 44.4796C69.1869 44.7369 68.8958 45.0009 68.5843 45.2514C68.2667 45.5101 67.9242 45.7369 67.562 45.9284C67.2084 46.1271 66.8306 46.2795 66.4381 46.382C66.0596 46.4776 65.6709 46.5277 65.2804 46.5309C64.5932 46.5595 63.9115 46.3978 63.3102 46.0638C62.7949 45.7453 62.407 45.2568 62.2134 44.6827C61.9885 44.0452 61.8364 43.3843 61.7598 42.7126C61.677 41.9868 61.6499 41.2558 61.6786 40.5259V40.3228C61.6838 40.3074 61.6838 40.2908 61.6786 40.2754V40.2077H69.7353C69.7759 40.2077 69.803 40.2077 69.803 40.14C69.8262 39.4143 69.7324 38.6897 69.5254 37.9939C69.3129 37.3021 68.9756 36.655 68.5302 36.0847C68.1144 35.5008 67.5546 35.0344 66.9053 34.7307C66.2134 34.4224 65.4623 34.2699 64.7049 34.2838C63.9322 34.2824 63.1681 34.4463 62.464 34.7645C61.7237 35.1147 61.0501 35.5912 60.4735 36.1727C59.8493 36.819 59.3855 37.6028 59.1194 38.461C58.804 39.4869 58.6531 40.5563 58.6726 41.6294C58.6561 42.5271 58.7771 43.4221 59.0314 44.2833C59.2427 44.9752 59.6164 45.6066 60.1214 46.1247C60.5737 46.5855 61.0944 46.9737 61.6651 47.2757C62.2027 47.5595 62.7839 47.7516 63.3847 47.8443C63.4987 47.869 63.614 47.8871 63.73 47.8985L64.1091 47.9459H64.319C64.9984 47.9501 65.6773 47.9048 66.3501 47.8105C66.8577 47.6845 67.3453 47.4885 67.799 47.2283C68.2427 46.9581 68.6639 46.6524 69.0583 46.3143C69.4746 45.9582 69.8493 45.5562 70.1754 45.116C70.1839 45.1004 70.1865 45.0822 70.1828 45.0648C70.179 45.0475 70.1692 45.032 70.1551 45.0212ZM63.1274 35.9357C63.3444 35.775 63.5904 35.6577 63.8519 35.5905C63.8965 35.5996 63.9426 35.5996 63.9873 35.5905H64.055C64.0625 35.5936 64.0705 35.5953 64.0787 35.5953C64.0868 35.5953 64.0949 35.5936 64.1024 35.5905C64.1155 35.5858 64.1299 35.5858 64.143 35.5905H64.319C64.3592 35.5987 64.4007 35.5987 64.4409 35.5905H64.5966C64.9112 35.5845 65.2239 35.6397 65.5174 35.7529C65.7751 35.8498 66.0068 36.005 66.1944 36.2065C66.3604 36.4177 66.5055 36.6444 66.6277 36.8836C66.7401 37.0997 66.8308 37.3265 66.8985 37.5606C66.9418 37.7137 66.9735 37.8698 66.9933 38.0277C67.0175 38.1708 67.0288 38.3158 67.0272 38.461V38.5896C67.0156 38.65 67.0156 38.712 67.0272 38.7724V38.9958H61.7937C61.7888 38.5148 61.8434 38.035 61.9562 37.5673C62.0452 37.2003 62.2114 36.8564 62.4436 36.5586C62.6436 36.3222 62.8735 36.1129 63.1274 35.9357Z" fill="#825171"/>
<path d="M85.1644 37.2357C85.192 37.0057 85.2419 36.779 85.3133 36.5587C85.3866 36.3534 85.5274 36.1792 85.7128 36.0645C85.9779 35.8969 86.265 35.7671 86.5658 35.6786C86.5783 35.6742 86.589 35.6659 86.5963 35.6549C86.6036 35.6439 86.6072 35.6308 86.6065 35.6176V34.6021C86.6065 34.5853 86.6003 34.569 86.5891 34.5565C86.5778 34.544 86.5623 34.5361 86.5455 34.5344H81.1292C81.1118 34.5359 81.0955 34.5436 81.0831 34.556C81.0707 34.5683 81.0631 34.5847 81.0615 34.6021V35.6244C81.0623 35.6382 81.0672 35.6514 81.0757 35.6623C81.0842 35.6732 81.0958 35.6812 81.1089 35.6853C81.3432 35.7433 81.5703 35.8274 81.786 35.9358C81.9517 36.0213 82.099 36.1386 82.2193 36.2811C82.3387 36.4266 82.4222 36.5983 82.463 36.7821C82.5198 37.0032 82.5471 37.2308 82.5442 37.4591L76.7962 42.8346V38.0955C76.7942 37.7697 76.8123 37.4441 76.8504 37.1206C76.8664 36.8859 76.9261 36.6563 77.0264 36.4436C77.1267 36.26 77.2709 36.1042 77.4462 35.99C77.6964 35.8357 77.9648 35.713 78.2451 35.6244C78.2582 35.6203 78.2698 35.6122 78.2783 35.6014C78.2868 35.5905 78.2917 35.5773 78.2925 35.5635V34.6021C78.2925 34.5842 78.2853 34.5669 78.2726 34.5543C78.2599 34.5416 78.2427 34.5344 78.2248 34.5344H72.7205C72.7025 34.5344 72.6853 34.5416 72.6726 34.5543C72.6599 34.5669 72.6528 34.5842 72.6528 34.6021V35.6244C72.654 35.6408 72.6607 35.6564 72.6717 35.6687C72.6827 35.6809 72.6975 35.6892 72.7137 35.6921C72.9837 35.7017 73.2479 35.7735 73.4855 35.902C73.6817 36.011 73.8329 36.1862 73.9121 36.3962C74.0054 36.6391 74.0734 36.8909 74.1152 37.1477C74.1628 37.4522 74.1854 37.7602 74.1829 38.0684V44.2901C74.1852 44.5826 74.1626 44.8748 74.1152 45.1635C74.0699 45.4261 74.002 45.6844 73.9121 45.9353C73.8273 46.1454 73.6779 46.3232 73.4855 46.443C73.2537 46.5784 72.9888 46.6464 72.7205 46.6394C72.7113 46.6383 72.702 46.6393 72.6933 46.6423C72.6846 46.6453 72.6767 46.6503 72.6702 46.6568C72.6637 46.6633 72.6587 46.6712 72.6557 46.6799C72.6527 46.6886 72.6517 46.6979 72.6528 46.7071V47.6955C72.6527 47.7041 72.6545 47.7126 72.658 47.7205C72.6614 47.7284 72.6665 47.7354 72.6729 47.7412C72.6793 47.7469 72.6869 47.7513 72.6951 47.7539C72.7033 47.7565 72.7119 47.7574 72.7205 47.7564H78.2248C78.2333 47.7574 78.242 47.7565 78.2502 47.7539C78.2584 47.7513 78.2659 47.7469 78.2723 47.7412C78.2787 47.7354 78.2838 47.7284 78.2873 47.7205C78.2908 47.7126 78.2925 47.7041 78.2925 47.6955V46.7138C78.2928 46.698 78.2875 46.6825 78.2776 46.6702C78.2678 46.6578 78.2538 46.6493 78.2383 46.6461C77.9845 46.6157 77.7387 46.5376 77.5139 46.4159C77.3366 46.3245 77.1817 46.1951 77.0603 46.0368C76.8512 45.5888 76.7603 45.0947 76.7962 44.6016L82.5442 39.287V44.2631C82.5481 44.5668 82.5255 44.8704 82.4765 45.1702C82.4402 45.4231 82.3743 45.6707 82.2802 45.9082C82.1959 46.1172 82.0431 46.2915 81.8469 46.4024C81.6087 46.5296 81.3449 46.6013 81.0751 46.6123C81.0583 46.614 81.0428 46.6218 81.0315 46.6343C81.0203 46.6469 81.0141 46.6631 81.0141 46.68V47.6684C81.0158 47.6852 81.0237 47.7007 81.0362 47.712C81.0487 47.7232 81.065 47.7294 81.0819 47.7293H86.5929C86.6091 47.7293 86.6246 47.7229 86.636 47.7115C86.6474 47.7001 86.6538 47.6846 86.6538 47.6684V46.7138C86.6542 46.698 86.6489 46.6825 86.639 46.6702C86.6291 46.6578 86.6152 46.6493 86.5997 46.6461C86.3331 46.6178 86.0762 46.5299 85.8482 46.3889C85.6572 46.2662 85.5102 46.086 85.4284 45.8743C85.3359 45.6359 85.2678 45.3886 85.2253 45.1364C85.1822 44.836 85.1619 44.5327 85.1644 44.2292V38.1023C85.1469 37.8137 85.1469 37.5243 85.1644 37.2357Z" fill="#825171"/>
<path d="M79.0847 34.602C78.9408 34.5531 78.8076 34.4773 78.692 34.3786C78.5814 34.2881 78.4913 34.175 78.428 34.0469C78.3677 33.9177 78.3376 33.7765 78.34 33.6339C78.3392 33.5354 78.3529 33.4373 78.3806 33.3428C78.4097 33.255 78.4532 33.1727 78.5092 33.0991C78.5592 33.0268 78.6267 32.9686 78.7056 32.9298C78.7873 32.8883 78.8779 32.8674 78.9696 32.8689C79.0145 32.8619 79.0602 32.8619 79.105 32.8689C79.1493 32.8831 79.189 32.9088 79.2201 32.9434C79.2527 32.9787 79.278 33.0201 79.2946 33.0652C79.3054 33.1188 79.3054 33.1741 79.2946 33.2277C79.3017 33.2703 79.3017 33.3138 79.2946 33.3563C79.2847 33.3939 79.2661 33.4287 79.2404 33.4579C79.2221 33.4892 79.1933 33.5132 79.1592 33.5256C79.1258 33.5334 79.091 33.5334 79.0576 33.5256H79.0102H78.9696H78.929H78.8748H78.7733H78.7191C78.7035 33.5225 78.6874 33.5225 78.6717 33.5256C78.6692 33.5458 78.6692 33.5663 78.6717 33.5865C78.6684 33.6135 78.6684 33.6408 78.6717 33.6678V33.7084C78.6902 33.7692 78.7226 33.8249 78.7665 33.8709C78.8229 33.9286 78.8866 33.9787 78.9561 34.0198C79.0472 34.0702 79.1453 34.1068 79.2472 34.1281C79.3711 34.139 79.4957 34.139 79.6196 34.1281C79.7557 34.1287 79.8916 34.1174 80.0258 34.0943C80.1332 34.0703 80.2361 34.0292 80.3305 33.9724C80.405 33.922 80.4712 33.8604 80.5268 33.7896C80.5689 33.7352 80.5926 33.6688 80.5945 33.6001C80.5978 33.5731 80.5978 33.5458 80.5945 33.5188C80.597 33.4986 80.597 33.4781 80.5945 33.4579H80.5539H80.4929H80.4523H80.4049H80.3643H80.3169C80.2835 33.4657 80.2488 33.4657 80.2154 33.4579C80.1812 33.4455 80.1525 33.4215 80.1341 33.3902C80.1109 33.3593 80.0926 33.3251 80.0799 33.2886C80.0729 33.246 80.0729 33.2026 80.0799 33.16C80.0692 33.1064 80.0692 33.0511 80.0799 32.9975C80.094 32.9512 80.1196 32.9093 80.1544 32.8757C80.1856 32.8411 80.2253 32.8154 80.2695 32.8012C80.3166 32.7935 80.3646 32.7935 80.4117 32.8012C80.5012 32.7997 80.5897 32.8206 80.669 32.8621C80.7478 32.9009 80.8154 32.9591 80.8653 33.0314C80.9244 33.1029 80.9682 33.1859 80.9939 33.2751C81.0216 33.3696 81.0353 33.4677 81.0346 33.5662C81.0369 33.6958 81.0139 33.8246 80.9669 33.9453C80.9217 34.058 80.8496 34.158 80.757 34.2364C80.59 34.3997 80.3817 34.5144 80.1544 34.5682H80.0664H79.9784H79.8091C79.5752 34.6451 79.3248 34.6568 79.0847 34.602Z" fill="#825171"/>
</svg>
